<svg width="120" height="40" viewBox="0 0 120 40" fill="none" xmlns="http://www.w3.org/2000/svg">
  <!-- Shopping bag icon -->
  <path d="M8 12C8 10.9391 8.42143 9.92172 9.17157 9.17157C9.92172 8.42143 10.9391 8 12 8H20C21.0609 8 22.0783 8.42143 22.8284 9.17157C23.5786 9.92172 24 10.9391 24 12V28C24 29.0609 23.5786 30.0783 22.8284 30.8284C22.0783 31.5786 21.0609 32 20 32H12C10.9391 32 9.92172 31.5786 9.17157 30.8284C8.42143 30.0783 8 29.0609 8 28V12Z" stroke="#4F46E5" stroke-width="2" stroke-linecap="round" stroke-linejoin="round"/>
  <path d="M16 6V12" stroke="#4F46E5" stroke-width="2" stroke-linecap="round" stroke-linejoin="round"/>
  <path d="M12 12V14" stroke="#4F46E5" stroke-width="2" stroke-linecap="round" stroke-linejoin="round"/>
  <path d="M20 12V14" stroke="#4F46E5" stroke-width="2" stroke-linecap="round" stroke-linejoin="round"/>
  
  <!-- Shop text -->
  <text x="30" y="24" font-family="Inter, sans-serif" font-size="18" font-weight="700" fill="#4F46E5">Shop</text>
  
  <!-- ARA text with gradient effect -->
  <defs>
    <linearGradient id="araGradient" x1="0%" y1="0%" x2="100%" y2="0%">
      <stop offset="0%" style="stop-color:#374151;stop-opacity:1" />
      <stop offset="100%" style="stop-color:#1F2937;stop-opacity:1" />
    </linearGradient>
  </defs>
  <text x="58" y="24" font-family="Inter, sans-serif" font-size="18" font-weight="700" fill="url(#araGradient)">ARA</text>
</svg>
