<svg width="32" height="32" viewBox="0 0 32 32" fill="none" xmlns="http://www.w3.org/2000/svg">
  <!-- Background circle -->
  <circle cx="16" cy="16" r="16" fill="#4F46E5"/>
  
  <!-- Shopping bag icon -->
  <path d="M10 10C10 8.93913 10.4214 7.92172 11.1716 7.17157C11.9217 6.42143 12.9391 6 14 6H18C19.0609 6 20.0783 6.42143 20.8284 7.17157C21.5786 7.92172 22 8.93913 22 10V20C22 21.0609 21.5786 22.0783 20.8284 22.8284C20.0783 23.5786 19.0609 24 18 24H14C12.9391 24 11.9217 23.5786 11.1716 22.8284C10.4214 22.0783 10 21.0609 10 20V10Z" stroke="white" stroke-width="1.5" stroke-linecap="round" stroke-linejoin="round"/>
  <path d="M16 4V10" stroke="white" stroke-width="1.5" stroke-linecap="round" stroke-linejoin="round"/>
  <path d="M13 10V11" stroke="white" stroke-width="1.5" stroke-linecap="round" stroke-linejoin="round"/>
  <path d="M19 10V11" stroke="white" stroke-width="1.5" stroke-linecap="round" stroke-linejoin="round"/>
  
  <!-- ShopARA text -->
  <text x="16" y="28" font-family="Inter, sans-serif" font-size="6" font-weight="700" fill="white" text-anchor="middle">SARA</text>
</svg>
